# xmcd
#
# Track frame offsets:
#	150
#	3169
#	20685
#	40588
#	59520
#	76776
#	92781
#	114222
#	130339
#	148814
#	168569
#
# Disc length: 2516 seconds
#
# Revision: 0
# Processed by: cddbd v1.5.2PL0 Copyright (c) Steve Scherf et al.
# Submitted via: EZCDAudioConverter 5.0.0.1
#
DISCID=8709d20b
DTITLE=LEO - Lovely Person
DYEAR=2006
DGENRE=Ballade
TTITLE0=Intro
TTITLE1=너를 잊는 일
TTITLE2=너만 사랑한 바보 (Your Man)
TTITLE3=일생을
TTITLE4=이게나야
TTITLE5=나는 너를 그린다
TTITLE6=Toy Story
TTITLE7=Over
TTITLE8=네번째 손가락
TTITLE9=동감
TTITLE10=너를 마신다
EXTD=
EXTT0=
EXTT1=
EXTT2=
EXTT3=
EXTT4=
EXTT5=
EXTT6=
EXTT7=
EXTT8=
EXTT9=
EXTT10=
PLAYORDER=
